<?xml version="1.0" encoding="UTF-8" standalone="no"?>
<!-- Created with Inkscape (http://www.inkscape.org/) -->

<svg
   version="1.1"
   id="svg1"
   width="150"
   height="100"
   viewBox="0 0 150 100"
   sodipodi:docname="rect5.svg"
   inkscape:export-filename="..\..\..\..\000.svg"
   inkscape:export-xdpi="96"
   inkscape:export-ydpi="96"
   xmlns:inkscape="http://www.inkscape.org/namespaces/inkscape"
   xmlns:sodipodi="http://sodipodi.sourceforge.net/DTD/sodipodi-0.dtd"
   xmlns="http://www.w3.org/2000/svg"
   xmlns:svg="http://www.w3.org/2000/svg">
  <defs
     id="defs1" />
  <sodipodi:namedview
     id="namedview1"
     pagecolor="#ffffff"
     bordercolor="#000000"
     borderopacity="0.25"
     inkscape:showpageshadow="2"
     inkscape:pageopacity="0.0"
     inkscape:pagecheckerboard="0"
     inkscape:deskcolor="#d1d1d1" />
  <g
     inkscape:groupmode="layer"
     inkscape:label="Image"
     id="g1"
     transform="translate(-71.291153,-156.56366)">
    <rect
       style="fill:#ffcc00;stroke:#ffffff;stroke-width:0.167458;stroke-linecap:round;stroke-miterlimit:6"
       id="rect5"
       width="71.808334"
       height="41.361549"
       x="126.49337"
       y="206.0574"
       inkscape:export-filename="rect5.svg"
       inkscape:export-xdpi="96"
       inkscape:export-ydpi="96"
       ry="7.7389369" />
    <path
       style="fill:#4d4d4d;stroke-width:0.28528"
       d="m 106.02096,247.50573 c -0.21983,-0.0775 -0.5317,-0.44647 -0.69302,-0.82005 -0.39808,-0.92178 -0.37869,-30.49496 0.0265,-40.2936 0.33333,-8.0628 0.28129,-8.55988 -0.93142,-8.89875 -2.60095,-0.72679 -3.12806,3.4924 -3.49546,27.97825 -0.1951,13.0024 -0.12502,12.58733 -2.011927,11.92406 -13.994429,-4.91911 -18.800958,-38.62242 -9.019726,-63.24622 8.598105,-21.64531 26.755203,-20.8385 33.279763,1.47881 1.44998,4.95966 1.06672,6.08456 -3.21443,9.43438 -1.4874,1.16383 -2.04288,1.75472 -1.77262,1.88563 0.50715,0.24559 3.63991,-0.19053 5.02312,-0.69943 2.19518,-0.80754 2.11313,-0.99721 2.52661,5.84156 1.61531,26.71686 -4.02648,43.29446 -15.44239,45.37543 -1.58936,0.2897 -1.89861,1.02145 -2.08494,4.93307 -0.1838,3.85966 -0.26754,4.31253 -0.90035,4.86967 -0.5009,0.44099 -0.63893,0.46638 -1.28963,0.23719 z"
       id="path1" />
    <ellipse
       style="fill:#ffcc00;fill-opacity:1;stroke:#ffffff;stroke-width:0.308024"
       id="path2"
       cx="104.12196"
       cy="188.3726"
       rx="6.3805914"
       ry="5.9080234" />
    <g
       id="text2"
       transform="matrix(2.3011336,-0.33082912,0.3823686,1.9909638,-176.75378,-166.20775)">
      <path
         style="color:#000000;-inkscape-font-specification:'Dancing Script';fill:#4d4d4d;-inkscape-stroke:none"
         d="m 94.566076,224.02562 q -0.512,0 -0.96,-0.576 -0.512,-0.512 -0.768,-1.152 -0.256,-0.576 -0.256,-0.704 0.896,-3.136 1.792,-5.632 0.832,-2.432 1.728,-5.056 0.832,-2.56 1.664,-6.016 0.832,-3.52 1.728,-8.704 0.896004,-5.184 1.792004,-12.864 0.064,-0.576 0.256,-0.832 0.192,-0.256 0.96,-0.256 1.664,0 2.368,0.96 0.704,0.896 0.704,1.984 0,0.896 -0.384,3.2 -0.384,2.304 -1.088,5.44 1.088,-2.112 2.688,-4.288 1.664,-2.176 3.776,-3.648 2.112,-1.472 4.608,-1.472 2.816,0 4.608,2.048 1.856,1.984 1.856,5.248 0,2.496 -1.152,5.312 -1.088,2.752 -3.136,5.248 -1.984,2.432 -4.736,3.968 -2.752,1.536 -6.08,1.536 -1.664,0 -2.688,-0.384 -1.024,-0.384 -1.024,-0.768 0,-0.256 0.448,-0.32 0.512,0 1.152,0 2.56,0 4.864,-1.216 2.368,-1.28 4.224,-3.328 1.856,-2.048 2.88,-4.544 1.088,-2.496 1.088,-4.928 0,-2.048 -0.896,-3.456 -0.832,-1.472 -2.752,-1.472 -1.664,0 -3.328,1.088 -1.6,1.024 -3.072,2.688 -1.408,1.6 -2.56,3.392 -1.088,1.728 -1.664,3.136 -1.152,4.8 -2.304,9.216 -1.152004,4.48 -2.240004,8.064 -1.024,3.648 -1.856,5.952 -0.896,2.304 -1.472,2.816 -0.32,0.32 -0.768,0.32 z"
         id="path3" />
      <path
         style="color:#000000;-inkscape-font-specification:'Dancing Script';fill:#ffffff;-inkscape-stroke:none"
         d="m 102.50195,182.13281 c -0.52316,0 -0.87442,0.0748 -1.04101,0.29688 -0.14649,0.19532 -0.23169,0.48752 -0.27539,0.88086 -0.59719,5.11875 -1.194144,9.40409 -1.791019,12.85742 -0.597094,3.45461 -1.172579,6.35544 -1.726562,8.69922 -0.554036,2.3012 -1.108676,4.30494 -1.66211,6.00781 -0.59703,1.74844 -1.17216,3.43413 -1.726562,5.05469 -0.598067,1.66618 -1.195328,3.54497 -1.792969,5.63672 l -0.0039,0.0137 v 0.0137 c 0,0.0762 0.02436,0.15243 0.06836,0.27344 0.04363,0.11997 0.108559,0.27581 0.19336,0.46679 2e-4,5.1e-4 -2.01e-4,0.001 0,0.002 4.29e-4,9.6e-4 0.0015,9.8e-4 0.002,0.002 0.174276,0.4341 0.43664,0.82694 0.78125,1.17383 6.87e-4,8.8e-4 0.0013,0.001 0.002,0.002 0.309548,0.39696 0.658929,0.61328 1.037109,0.61328 0.321687,0 0.606352,-0.119 0.835938,-0.34765 0.420359,-0.3745 0.899478,-1.31434 1.498047,-2.85352 v -0.002 c 0.555947,-1.53955 1.176282,-3.52547 1.859375,-5.95899 l -0.002,0.002 c 0.72585,-2.39104 1.473893,-5.08057 2.242183,-8.06836 0.76768,-2.94278 1.53509,-6.01259 2.30273,-9.21094 5e-4,-0.002 0.001,-0.004 0.002,-0.006 0.3807,-0.92803 0.93091,-1.9626 1.65039,-3.10547 v -0.002 c 0.76506,-1.18996 1.61577,-2.3164 2.55078,-3.37891 0.97614,-1.10346 1.99315,-1.99303 3.05078,-2.66992 1.09649,-0.71693 2.18601,-1.07031 3.27344,-1.07031 1.25431,0 2.12569,0.46742 2.66406,1.41992 l 0.002,0.002 0.002,0.002 c 0.58548,0.92004 0.8789,2.05166 0.8789,3.40234 0,1.60634 -0.35757,3.23563 -1.07812,4.88867 h -0.002 v 0.002 c -0.67824,1.65321 -1.63147,3.15658 -2.86133,4.51368 -1.23005,1.35729 -2.62867,2.4607 -4.19727,3.30859 v -0.002 c -1.52241,0.80349 -3.12565,1.20508 -4.8164,1.20508 h -1.15821 -0.008 c -0.15862,0.0227 -0.28556,0.0628 -0.38086,0.13085 -0.0953,0.0681 -0.1543,0.17442 -0.1543,0.28907 0,0.17266 0.11335,0.32719 0.29688,0.46484 0.18353,0.13765 0.44648,0.26851 0.79297,0.39844 0.69942,0.26228 1.60559,0.39062 2.72265,0.39062 2.23413,0 4.27919,-0.51642 6.12891,-1.54882 1.8454,-1.03 3.43512,-2.36125 4.76562,-3.99219 1.37069,-1.67053 2.42099,-3.42926 3.1504,-5.27344 0.77193,-1.88696 1.16015,-3.6721 1.16015,-5.35156 0,-2.19397 -0.62598,-3.97194 -1.88086,-5.31446 l -0.002,-0.002 c -1.21159,-1.38351 -2.78095,-2.08008 -4.68164,-2.08008 -1.68376,0 -3.24278,0.49829 -4.66602,1.49024 -1.4169,0.98753 -2.68172,2.21164 -3.79687,3.66992 h -0.002 v 0.002 c -0.95329,1.29649 -1.72024,2.57016 -2.40234,3.83399 0.40458,-1.83727 0.7512,-3.52285 0.98243,-4.91016 0.25635,-1.53808 0.38477,-2.60511 0.38477,-3.2168 0,-0.74551 -0.24302,-1.43102 -0.72266,-2.04296 -0.49166,-0.67045 -1.32056,-1.00196 -2.44922,-1.00196 z m 0,0.20117 c 1.09001,0 1.84011,0.31038 2.28711,0.91993 l 0.002,0.002 c 0.45712,0.58179 0.68164,1.21822 0.68164,1.92187 0,0.58298 -0.12521,1.64968 -0.38086,3.1836 -0.25558,1.53347 -0.61886,3.34425 -1.08789,5.43359 l 0.1875,0.0684 c 0.72258,-1.40266 1.61577,-2.82651 2.67968,-4.27344 1.1033,-1.44254 2.35324,-2.65013 3.75196,-3.625 1.39276,-0.97071 2.90654,-1.45507 4.55078,-1.45507 1.85297,0 3.35572,0.66797 4.5332,2.01367 v 0.002 h 0.002 c 1.21855,1.30259 1.82813,3.02274 1.82813,5.17969 0,1.64853 -0.38047,3.40769 -1.14453,5.27539 -0.72123,1.82427 -1.76172,3.56396 -3.1211,5.2207 -1.31482,1.61173 -2.8831,2.92731 -4.70703,3.94531 -1.81961,1.0156 -3.82804,1.52344 -6.03125,1.52344 -1.1016,0 -1.98643,-0.12919 -2.65234,-0.3789 -0.33618,-0.12607 -0.58439,-0.25079 -0.74219,-0.36915 -0.1578,-0.11835 -0.2168,-0.22135 -0.21679,-0.30468 0,-0.056 0.0163,-0.0864 0.0703,-0.125 0.053,-0.0378 0.15153,-0.0735 0.28711,-0.0937 h 1.14258 c 1.72257,0 3.36056,-0.41068 4.91015,-1.22852 h 0.002 c 1.58873,-0.85877 3.00539,-1.97624 4.25,-3.34961 1.24442,-1.37315 2.21139,-2.89612 2.89844,-4.57031 v -0.002 c 0.7296,-1.67436 1.0957,-3.33106 1.09571,-4.9668 0,-1.37999 -0.30293,-2.55248 -0.91211,-3.50977 -0.57133,-1.00673 -1.53249,-1.51757 -2.83594,-1.51757 -1.13124,0 -2.26064,0.36978 -3.38281,1.10351 -1.0757,0.68845 -2.10527,1.58988 -3.0918,2.70508 -0.94198,1.07043 -1.7996,2.20541 -2.57031,3.4043 v 0.002 c -0.72763,1.15565 -1.28494,2.20454 -1.67188,3.15039 l -0.004,0.008 -0.002,0.008 c -0.76786,3.1994 -1.53491,6.26958 -2.30273,9.21289 -0.76771,2.98553 -1.513468,5.67292 -2.238284,8.06054 v 0.002 h -0.002 c -0.68224,2.43048 -1.300131,4.41286 -1.853516,5.94531 -0.594949,1.52927 -1.096259,2.46686 -1.443359,2.77539 l -0.002,0.002 -0.002,0.002 c -0.196752,0.19675 -0.422528,0.29101 -0.697266,0.29101 -0.303645,0 -0.593584,-0.16775 -0.880859,-0.53711 l -0.0039,-0.006 -0.0039,-0.004 c -0.33245,-0.33245 -0.580575,-0.70535 -0.746093,-1.11914 v -0.002 l -0.002,-0.002 c -0.08477,-0.19074 -0.148123,-0.34338 -0.189453,-0.45703 -0.03977,-0.10937 -0.05542,-0.18316 -0.05664,-0.19727 0.594774,-2.08024 1.190806,-3.94978 1.785156,-5.60547 v -0.002 c 0.554673,-1.62135 1.131177,-3.30729 1.728516,-5.05664 0.555731,-1.70994 1.110887,-3.71752 1.666015,-6.02344 v -0.002 c 0.555349,-2.34955 1.132897,-5.25161 1.730469,-8.70899 0.597804,-3.45866 1.195494,-7.7479 1.792974,-12.86914 v -0.002 c 0.0416,-0.37466 0.12682,-0.63524 0.23633,-0.78125 0.0894,-0.11921 0.37807,-0.2168 0.8789,-0.2168 z"
         id="path4" />
    </g>
    <text
       xml:space="preserve"
       style="font-size:102.435px;font-family:'Dancing Script';-inkscape-font-specification:'Dancing Script';fill:#4d4d4d;stroke:#ffffff;stroke-width:0.32171"
       x="104.80038"
       y="276.20123"
       id="text4"
       transform="matrix(1.0789215,-0.07242681,0.07871535,0.9215674,0,0)"><tspan
         sodipodi:role="line"
         id="tspan4"
         x="104.80038"
         y="276.20123"
         style="stroke-width:0.32171">e</tspan></text>
    <text
       xml:space="preserve"
       style="font-size:89.434px;font-family:'Dancing Script';-inkscape-font-specification:'Dancing Script';fill:#4d4d4d;stroke:#ffffff;stroke-width:0.28088"
       x="173.73909"
       y="243.00713"
       id="text5"
       transform="matrix(1.1257647,0.13211898,-0.13674421,0.87223688,0,0)"><tspan
         sodipodi:role="line"
         id="tspan5"
         x="173.73909"
         y="243.00713"
         style="stroke-width:0.28088">n</tspan></text>
  </g>
</svg>
